# xmcd CD database file
#
# Track frame offsets:
#	150
#	6143
#	23280
#	38416
#	41312
#	49747
#	53872
#	59389
#	72971
#	82617
#	85694
#	102908
#	106924
#	112953
#	125761
#	136020
#	141246
#	153409
#	159985
#	166185
#	181248
#	192969
#	195834
#	207837
#	210893
#
# Disc length: 2847 seconds
#
# Revision: 0
# Processed by: cddbd v1.5.2PL0 Copyright (c) Steve Scherf et al.
# Submitted via: CDex 2.07
#
DISCID=2b0b1d19
DTITLE=Hank Williams - The Complete Health and Happiness Shows [CD1]
DYEAR=2019
DGENRE=Country
TTITLE0=Happy Rovin' Cowboy (Theme)
TTITLE1=Wedding Bells
TTITLE2=Lovesick Blues
TTITLE3=Old Joe Clark
TTITLE4=Where The Soul Of Man Never Dies
TTITLE5=Sally Goodin'
TTITLE6=Happy Rovin' Cowboy (Theme)
TTITLE7=You're Gonna Change (Or I'm Gonna Leave)
TTITLE8=(There's A Bluebird) On Your Windowsill
TTITLE9=Fire On The Mountain
TTITLE10=Tramp On The Street
TTITLE11=Sally Goodin'
TTITLE12=Happy Rovin' Cowboy (Theme)
TTITLE13=I'm A Long Gone Daddy
TTITLE14=I'm Telling You
TTITLE15=Bill Cheatham
TTITLE16=When God Comes And Gathers His Jewels
TTITLE17=Sally Goodin'
TTITLE18=Happy Rovin' Cowboy (Theme)
TTITLE19=Lost Highway
TTITLE20=I Want To Live And Love
TTITLE21=Bile Them Cabbage Down
TTITLE22=I'll Have a New Body (I'll Have a New Life)
TTITLE23=Fingers On Fire
TTITLE24=Sally Goodin'
EXTD=YEAR: 2019
EXTT0=
EXTT1=
EXTT2=
EXTT3=
EXTT4=
EXTT5=
EXTT6=
EXTT7=
EXTT8=
EXTT9=
EXTT10=
EXTT11=
EXTT12=
EXTT13=
EXTT14=
EXTT15=
EXTT16=
EXTT17=
EXTT18=
EXTT19=
EXTT20=
EXTT21=
EXTT22=
EXTT23=
EXTT24=
PLAYORDER=
